<svg width="1475" height="389" viewBox="0 0 1475 389" fill="none" xmlns="http://www.w3.org/2000/svg">
<g clip-path="url(#clip0_135_699)">
<path d="M707.508 386.401C678.977 382.65 634.926 376.758 601.688 372.249C585.143 370.013 562.419 366.989 551.191 365.548C523.908 362.034 487.885 357.302 475.075 355.541C459.644 353.424 404.936 346.277 384.107 343.655C374.096 342.399 354.715 339.896 341.036 338.09C327.357 336.285 302.963 333.113 286.826 331.04C270.69 328.96 242.285 325.275 223.706 322.853C205.126 320.424 184.571 317.757 178.036 316.932C171.501 316.108 160.971 314.748 154.644 313.924C137.772 311.71 88.3002 305.343 64.7896 302.357C42.6082 299.541 36.5857 298.39 32.1821 296.139C25.6473 292.81 18.6594 281.734 12.4587 264.907C8.33732 253.726 2.48565 231.967 3.02032 229.805C3.09458 229.5 2.48565 229.248 1.66879 229.248C1.46086 229.248 1.28264 229.24 1.12669 229.114C1.23066 229.114 1.34947 229.099 1.48314 229.069C2.19603 228.913 2.69357 228.378 2.58961 227.873C2.47822 227.368 2.18118 223.966 1.92127 220.303C1.66136 216.641 1.16382 213.647 0.814802 213.647C0.562319 213.647 0.346965 215.482 0.243002 218.126C0.183594 212.57 0.183594 204.234 0.183594 191.731C0.183594 180.491 0.183594 172.616 0.235576 167.096C0.332113 170.38 0.569745 171.896 0.955895 171.658C1.37918 171.398 1.66879 169.957 1.60196 168.456C1.54255 166.955 1.86186 163.553 2.31485 160.901C3.41389 154.475 3.39162 154.215 1.66879 154.215C1.60938 154.215 1.5574 154.215 1.50542 154.215C1.54255 154.215 1.57968 154.215 1.61681 154.215C2.80496 154.215 3.25795 153.234 4.26788 148.457C6.33973 138.658 11.2929 122.285 14.7608 113.808C20.553 99.6186 26.6275 90.7855 33.1846 86.9893C37.7813 84.3371 49.002 82.7919 187.318 65.8463C288.178 53.4844 292.121 53.0163 353.66 46.1074C396.248 41.3305 402.352 40.6099 517.403 26.777C529.656 25.2987 552.045 22.6391 567.157 20.8561C619.399 14.7049 700.862 4.83912 718.276 2.55841C724.61 1.72636 731.954 0.768014 734.613 0.41885C741.63 -0.49492 758.019 0.129118 772.693 1.87494C779.726 2.70699 793.998 4.39338 804.417 5.61174C839.824 9.76456 874.852 14.0288 963.333 24.9643C1002.98 29.8601 1036.12 33.8197 1094.03 40.5653C1186.53 51.3522 1258.75 60.1928 1312.73 67.3395C1421.49 81.7444 1437.17 84.0102 1441.53 85.9418C1452.96 91.001 1463.38 113.667 1472.21 152.729L1474.49 162.758L1474.75 192.452C1474.92 212.124 1474.75 222.896 1474.23 224.397C1473.79 225.63 1472.43 231.328 1471.18 237.048C1466.22 259.878 1456.22 284.475 1448.95 291.763C1444.88 295.834 1442.65 297.082 1436.71 298.612C1432.78 299.623 1359.65 309.459 1295.65 317.594C1274.33 320.298 1257.68 322.46 1206.16 329.19C1195.34 330.602 1161.93 334.948 1131.9 338.841C1101.88 342.741 1065.96 347.436 1052.07 349.271C1038.19 351.113 1012.95 354.456 996.007 356.7C979.061 358.944 952.988 362.435 938.084 364.456C876.761 372.769 860.164 374.99 838.576 377.784C814.056 380.948 782.139 385.183 765.215 387.508C748.536 389.804 730.781 389.462 707.508 386.401ZM721.617 381.067C728.761 381.966 733.373 382.568 738.006 382.739C746.932 383.073 755.91 381.832 783.253 378.133C801.476 375.674 826.732 372.308 852.686 368.876C859.02 368.037 872.55 366.209 882.761 364.82C892.972 363.431 910.348 361.105 921.376 359.664C932.404 358.223 955.298 355.192 972.244 352.941C1002.17 348.959 1049.74 342.704 1090.69 337.362C1101.72 335.921 1118.25 333.744 1127.45 332.526C1136.64 331.308 1149.67 329.629 1156.41 328.789C1174.59 326.523 1239.32 318.181 1274.48 313.56C1291.43 311.338 1313.49 308.493 1323.49 307.238C1356.73 303.077 1424.76 293.902 1431.17 292.714C1442.82 290.552 1444.97 288.776 1451.2 276.199C1457.26 263.956 1464.53 239.604 1466.82 223.862C1469.26 207.057 1468.89 173.686 1466.06 157.142C1461.59 130.887 1452.64 106.26 1444.28 97.1819C1439.2 91.6696 1441.71 92.2639 1401.37 87.019C1387.33 85.1915 1353.29 80.6895 1325.72 77.0047C1298.16 73.3273 1267.4 69.3082 1257.4 68.075C1206.98 61.8792 1170.41 57.4663 1152.32 55.4159C1092.66 48.6407 963.801 33.27 878.305 22.7282C861.56 20.6704 838.502 17.8251 827.066 16.421C771.349 9.55655 760.307 8.44963 747.608 8.43477C737.256 8.42734 727.38 9.49712 659.982 17.8993C630.619 21.5619 558.335 30.2464 524.086 34.2283C508.158 36.0782 486.934 38.5892 476.931 39.8001C466.929 41.0185 447.376 43.3512 433.489 45.0004C419.603 46.6422 399.887 48.975 389.676 50.1933C379.465 51.4043 361.584 53.4324 349.947 54.6953C305.124 59.5613 234.221 68.0304 132.366 80.682C56.3685 90.1243 40.6849 92.3085 36.8976 93.98C31.1945 96.5059 26.1745 104.433 20.308 120.152C12.8523 140.166 9.43636 157.09 8.33732 179.421C7.69126 192.608 8.29276 216.462 9.43636 222.933C12.934 242.761 15.5851 253.125 19.8402 263.681C22.8105 271.051 27.0285 279.587 29.7019 283.621C32.2267 287.439 37.7739 291.421 41.821 292.313C43.633 292.714 58.6409 294.742 75.186 296.822C91.731 298.902 111.276 301.428 118.628 302.431C125.98 303.434 148.035 306.279 167.639 308.746C187.244 311.212 210.636 314.221 219.621 315.424C234.971 317.475 247.528 319.102 326.184 329.176C384.285 336.619 397.659 338.35 432.375 342.889C451.371 345.378 482.107 349.42 500.694 351.879C560.681 359.82 617.357 367.331 662.952 373.378C687.458 376.625 713.857 380.087 721.617 381.067ZM1354.21 267.671L1349.85 270.798L739.336 270.828L128.824 270.85L124.368 267.871C119.63 264.706 117.224 262.002 114.648 256.951C113.058 253.823 113.058 253.749 113.058 191.731C113.058 129.818 113.066 129.632 114.64 126.512C117.12 121.616 120.321 117.968 124.079 115.762L127.539 113.726L1350.2 113.318L1353 115.086C1354.54 116.059 1357.04 118.221 1358.54 119.892C1363.67 125.568 1363.85 126.274 1364.42 143.071C1365.11 163.375 1365.12 215.578 1364.42 237.932L1363.87 255.903L1361.22 260.219C1359.49 263.027 1357.04 265.628 1354.21 267.671ZM191.774 267.321C226.29 267.425 500.487 267.596 801.112 267.7L1347.71 267.879L1351.1 265.732C1354.58 263.518 1357.18 260.546 1359.61 255.992C1360.93 253.526 1361.01 250.272 1361.22 191.976C1361.45 131.645 1361.43 130.509 1359.96 127.633C1357.79 123.369 1354.97 120.271 1351.31 118.132L1348.1 116.245L739.306 116.475C183.368 116.676 130.287 116.802 127.91 117.887C124.079 119.632 120.633 122.797 118.784 126.267L117.143 129.327V254.254L119.393 257.894C120.633 259.9 123.306 262.797 125.334 264.328L129.024 267.121L191.774 267.321ZM1348.61 261.2L1345.55 263.421L739.885 263.354C398.015 263.325 133.279 263.013 132.062 262.649C130.866 262.292 128.586 260.732 126.982 259.179C125.913 258.147 125.059 257.485 124.368 256.676C121.309 253.087 121.598 246.639 121.598 192.103C121.598 132.299 121.598 132.299 123.195 129.327C125.222 125.561 127.732 123.221 130.948 122.084C132.908 121.393 263.947 121.133 709.364 120.932C1026.1 120.791 1299.39 120.903 1316.67 121.185L1348.09 121.705L1350.29 123.548C1351.5 124.565 1353.4 126.95 1354.51 128.852L1356.54 132.299L1356.76 186.865C1356.89 218.268 1356.68 243.898 1356.28 247.263C1355.46 254.023 1353.43 257.708 1348.61 261.2ZM764.317 361.061C742.484 364.084 738.177 364.04 713.449 360.474C706.097 359.412 694.572 357.852 687.829 357.012C676.623 355.608 629.535 349.375 558.988 339.955C543.876 337.942 516.14 334.257 497.353 331.768C458.262 326.59 417.895 320.885 413.729 319.949C412.162 319.592 409.37 318.418 407.521 317.334C397.741 311.598 396.857 296.287 405.894 289.096L408.753 286.823H1068.41L1071.83 288.836C1076.22 291.414 1078.67 296.547 1078.69 303.166C1078.7 308.189 1077.51 311.012 1073.52 315.424C1070.37 318.916 1068.91 319.421 1056.46 321.338C1039.81 323.901 939.02 337.615 805.159 355.526C789.847 357.577 771.46 360.065 764.317 361.061ZM1075.59 96.8179L1072.38 99.2397H408.338L404.862 95.6292C399.04 89.5894 398.409 82.309 403.11 75.4149C404.105 73.9513 406.169 72.0569 407.692 71.21C411.612 69.0185 415.4 68.491 505.15 57.6446C518.829 55.988 539.384 53.4844 550.82 52.0803C562.256 50.6688 592.494 46.984 618.025 43.8935C672.628 37.2668 713.516 32.2076 729.043 30.1647C735.17 29.3549 742.96 28.6863 746.361 28.6789C755.821 28.6566 786.32 32.1631 907.638 47.2366C968.145 54.7547 988.403 57.2435 1010.49 59.8511C1031.86 62.3769 1057.6 65.7794 1066.44 67.2578C1075.98 68.8402 1077.34 69.6722 1080.47 75.8383C1084.23 83.2228 1082.22 91.8256 1075.59 96.8179ZM716.048 358.112C739.068 361.365 744.965 361.261 773.97 357.079C794.124 354.182 846.782 346.983 864.196 344.754C868.689 344.182 882.226 342.369 894.271 340.728C927.822 336.166 970.618 330.386 983.012 328.752C1031.66 322.304 1065.39 317.17 1068.05 315.788C1069.97 314.793 1074.66 309.994 1074.78 308.902C1074.81 308.605 1075.01 307.698 1075.23 306.881C1076.65 301.495 1074.29 293.776 1070.39 290.998C1068.45 289.631 1060.72 289.586 740.182 289.341C465.191 289.126 411.65 289.244 410.098 290.091C407.357 291.577 404.907 293.969 403.637 296.399C402.196 299.177 402.204 306.42 403.644 309.191C404.892 311.576 408.152 314.815 410.536 316.041C413.298 317.452 442.549 321.865 489.927 328.017C518.695 331.746 522.742 332.281 565.672 338.031C588.544 341.099 627.642 346.292 652.556 349.568C677.47 352.852 706.045 356.693 716.048 358.112ZM409.749 96.127L412.697 97.8654L477.243 97.4419C512.739 97.2042 660.813 97.011 806.288 97.011H1070.8L1074.19 94.0246C1080.08 88.8391 1081.42 81.8707 1077.69 75.8383C1074.66 70.9352 1072.06 70.2963 1038.34 66.1806C1018.56 63.7736 911.373 50.4608 811.1 37.9726C790.07 35.3501 767.139 32.6682 760.151 32.0219C756.482 31.6728 753.905 31.4053 751.329 31.3013C743.784 30.9819 736.187 32.0145 700.825 36.4942C686.53 38.3069 659.462 41.6277 640.674 43.8786C621.886 46.1296 581.949 51.0031 551.934 54.7102C521.918 58.4172 486.414 62.7558 473.04 64.353C443.009 67.9338 420.657 70.8089 415.37 71.7598C407.112 73.253 403.414 77.2647 403.414 84.7531C403.414 90.2432 405.196 93.4377 409.749 96.127ZM254.65 230.934C257.033 231.09 262.944 231.194 267.794 231.164L276.601 231.105L281.413 222.562C291.75 204.204 298.99 192.192 299.517 192.511C299.814 192.704 299.948 194.606 299.799 196.753C299.658 198.893 299.324 207.622 299.072 216.15L298.604 231.647L311.31 231.32C320.993 231.075 324.261 230.741 325.048 229.939C326.481 228.475 364.799 156.577 364.799 155.351C364.799 155.136 359.98 154.957 354.091 154.957H343.383L332.132 177.059C325.954 189.213 320.54 199.494 320.102 199.903C319.3 200.661 319.731 174.414 320.741 161.086L321.209 154.957L301.307 154.995L293.926 167.795C284.249 184.57 274.098 201.159 273.734 200.795C273.437 200.497 276.875 160.707 277.522 157L277.878 154.957H254.961L254.59 157.372C254.39 158.702 253.862 168.144 253.417 178.359C252.622 196.946 251.583 215.266 250.758 225.31L250.32 230.659L254.65 230.934ZM757.448 230.971C758.569 231.157 770.851 231.261 784.738 231.202C813.232 231.083 812.987 231.12 818.177 225.459C821.452 221.878 820.427 224.887 832.301 184.079C838.272 163.56 838.517 161.681 835.74 158.07C835.012 157.127 833.096 156.05 831.485 155.671C829.873 155.299 816.982 154.987 802.835 154.972C778.968 154.957 777.089 155.054 776.748 156.258C775.604 160.299 764.383 198.603 760.262 212.532C757.604 221.521 755.42 229.27 755.42 229.753C755.413 230.236 756.326 230.785 757.448 230.971ZM599.794 230.8C600.633 231.157 611.178 231.372 623.223 231.276C645.063 231.105 645.137 231.098 648.442 229.248C654.865 225.637 656.068 222.614 668.18 179.525C672.762 163.204 673.081 160.195 670.475 157.58C667.965 155.076 664.994 154.824 641.045 155.091C620.045 155.329 619.859 155.344 616.607 157.186C614.802 158.211 612.663 159.942 611.854 161.042C610.124 163.375 593.556 218.832 593.534 222.354C593.519 224.924 596.98 229.597 599.794 230.8ZM1254.25 230.994C1254.96 231.194 1266.24 231.298 1279.31 231.224C1305.74 231.075 1306.32 230.979 1310.61 226.083C1313.27 223.044 1315.35 217.079 1321.94 193.551C1330.41 163.278 1330.59 161.814 1326.3 157.394L1323.95 154.957H1298.84C1285.03 154.957 1273.74 155.084 1273.74 155.24C1273.74 155.396 1270.76 166.012 1267.11 178.827C1260.81 201.04 1254.39 224.359 1253.4 228.638C1253.06 230.147 1253.26 230.711 1254.25 230.994ZM672.42 230.949C673.341 231.127 677.871 231.32 682.482 231.372L690.874 231.476L691.854 229.062C692.396 227.732 694.097 222.383 695.641 217.176L698.448 207.704H710.515L714.11 218.661C716.085 224.686 717.919 229.849 718.179 230.139C718.855 230.882 735.541 231.774 737.865 231.194C738.935 230.927 739.811 230.221 739.811 229.634C739.811 229.047 738.006 223.683 735.808 217.71C733.224 210.72 732.103 206.76 732.652 206.597C733.12 206.455 734.353 206.158 735.4 205.928C738.214 205.319 742.143 202.436 744.073 199.576C747.118 195.052 755.948 164.637 755.138 161.436C754.878 160.388 753.794 158.494 752.732 157.238L750.801 154.943L721.773 155.136L692.745 155.329L690.629 162.386C685.252 180.335 670.749 229.946 670.749 230.407C670.749 230.525 671.499 230.778 672.42 230.949ZM350.133 230.964C351.054 231.142 355.977 231.254 361.086 231.202L370.369 231.105L379.072 214.39H407.989L407.595 216.433C407.372 217.554 407.097 221.321 406.979 224.79L406.756 231.105L416.053 231.313C422.952 231.462 425.707 231.261 426.717 230.518C427.964 229.604 428.18 227.286 429.086 204.68C429.635 191.018 430.103 174.243 430.118 167.401L430.148 154.957H388.711L385.183 161.829C380.787 170.402 361.688 206.091 354.128 219.88C351.009 225.555 348.462 230.303 348.462 230.414C348.462 230.533 349.212 230.778 350.133 230.964ZM168.612 230.852C170.937 231.127 181.526 231.261 192.145 231.157C213.183 230.934 215.099 230.607 219.502 226.425C222.54 223.542 223.943 220.429 227.745 208.164C231.651 195.579 232.052 191.003 229.461 188.559C227.144 186.382 223.163 185.676 207.74 184.681C199.586 184.161 194.024 183.485 193.474 182.95C192.375 181.88 194.247 172.639 195.836 171.324C197.069 170.291 216.294 169.466 217.609 170.388C218.337 170.893 218.396 171.821 217.861 174.199C217.2 177.163 217.26 177.371 219.057 178.054C220.104 178.455 224.456 178.686 228.74 178.567L236.515 178.359L238.609 171.673C241.06 163.82 241.327 159.504 239.486 157.231C237.458 154.735 229.728 154.036 207.368 154.341C188.818 154.593 187.496 154.697 184.348 156.258C182.506 157.164 180.219 159.073 179.261 160.492C177.36 163.293 170.439 184.51 169.726 189.688C169.318 192.689 169.466 193.053 172.333 195.772C176.15 199.405 179.053 200.014 195.435 200.594C202.14 200.839 207.784 201.188 207.977 201.381C208.163 201.567 207.881 203.818 207.339 206.389C206.641 209.687 205.727 211.678 204.205 213.201L202.066 215.355L193.088 214.902C188.15 214.657 183.776 214.115 183.36 213.699C182.848 213.186 182.855 211.856 183.375 209.583L184.14 206.218H163.518L162.738 208.261C162.308 209.382 161.253 212.904 160.399 216.083C157.807 225.726 160.102 229.842 168.612 230.852ZM1042.23 230.964C1043.15 231.15 1047.57 231.254 1052.04 231.202L1060.18 231.105L1061.17 227.762C1061.72 225.919 1063.08 221.076 1064.19 216.99L1066.21 209.561L1082.27 209.1C1097.36 208.669 1098.52 208.536 1101.55 206.864C1105.9 204.464 1107.6 201.144 1112.25 185.847C1119.36 162.461 1119.63 159.66 1115.08 156.666C1113.23 155.455 1110.63 155.307 1087.64 155.106L1062.24 154.883L1061.45 157.335C1059.33 163.991 1040.56 229.716 1040.56 230.496C1040.56 230.57 1041.31 230.778 1042.23 230.964ZM976.172 230.845C978.304 231.135 988.425 231.276 998.673 231.172C1016.78 230.986 1017.39 230.927 1020.58 229.181C1024.76 226.893 1027.6 221.403 1031.31 208.446C1034.8 196.241 1035.3 191.85 1033.43 189.785C1030.89 186.984 1028.44 186.345 1016.8 185.483C1001.3 184.339 999.869 184.087 999.341 182.43C998.71 180.439 1000.93 172.594 1002.44 171.494C1003.31 170.856 1006.75 170.558 1013.21 170.558H1022.71L1022.24 173.976C1021.9 176.494 1022.05 177.564 1022.81 178.047C1024.48 179.102 1038.77 178.894 1039.63 177.802C1040.81 176.294 1043.53 165.143 1043.53 161.822C1043.53 159.645 1043.01 158.144 1041.74 156.674L1039.95 154.586L1017.38 154.675C996.505 154.749 994.566 154.868 991.44 156.25C989.584 157.075 987.341 158.523 986.45 159.482C983.791 162.334 976.165 188.388 977.011 191.746C977.598 194.101 980.227 197.169 982.796 198.499C984.326 199.286 989.331 199.97 998.376 200.616C1005.71 201.144 1012.03 201.894 1012.43 202.295C1012.91 202.771 1012.86 204.286 1012.28 206.663C1011.11 211.411 1009.7 214.167 1007.93 215.11C1006.35 215.957 995.331 216.15 991.559 215.393L989.16 214.917L989.65 210.564L990.141 206.218H971.464L970.685 208.261C970.254 209.382 969.199 212.904 968.345 216.083C965.806 225.555 968.026 229.753 976.172 230.845ZM1117.24 230.949C1118.16 231.127 1130.16 231.32 1143.93 231.372L1168.94 231.476L1170.8 225.347C1171.82 221.975 1172.88 218.297 1173.15 217.176L1173.65 215.133H1139.21L1139.7 212.896C1139.97 211.663 1140.78 208.573 1141.5 206.025L1142.8 201.389L1155.88 201.017C1163.11 200.809 1169.28 200.312 1169.67 199.903C1170.27 199.279 1171.13 196.619 1173.93 186.806C1174.24 185.728 1172.83 185.528 1161.62 185.045C1154.66 184.748 1148.79 184.22 1148.57 183.871C1148.17 183.21 1150.01 175.09 1151.21 172.245C1151.9 170.61 1152.12 170.581 1168.82 170.388L1185.74 170.187L1187.4 165.091C1188.3 162.282 1189.26 158.85 1189.52 157.461L1190 154.935L1163.05 155.136L1136.11 155.329L1133.02 166.472C1131.32 172.601 1126.7 189.176 1122.75 203.306C1118.8 217.436 1115.57 229.359 1115.57 229.812C1115.57 230.258 1116.32 230.778 1117.24 230.949ZM1187.04 230.956C1187.96 231.135 1199.89 231.246 1213.55 231.194L1238.39 231.105L1240.51 223.78C1241.68 219.746 1242.42 216.239 1242.16 215.979C1241.9 215.719 1234.36 215.4 1225.41 215.266C1216.45 215.133 1209.13 214.798 1209.13 214.523C1209.13 214.248 1209.88 211.091 1210.79 207.518L1212.45 201.017H1238.91L1239.88 198.603C1241.47 194.673 1243.55 186.174 1243.05 185.676C1242.8 185.416 1237.06 185.045 1230.3 184.837C1223.53 184.629 1217.86 184.228 1217.68 183.938C1217.07 182.95 1220.4 172.423 1221.64 171.405C1222.61 170.618 1225.47 170.477 1235.12 170.774C1241.86 170.982 1249.03 170.937 1251.05 170.67L1254.73 170.187L1256.76 163.501C1257.87 159.823 1258.81 156.391 1258.83 155.879C1258.88 155.136 1253.35 154.98 1232.36 155.136L1205.84 155.329L1204.13 161.644C1203.19 165.12 1198.58 181.501 1193.89 198.046C1189.21 214.598 1185.37 228.698 1185.37 229.381C1185.37 230.087 1186.1 230.771 1187.04 230.956ZM866.053 247.427C866.053 247.553 866.045 247.664 866.097 247.709C866.29 247.88 867.352 247.048 873.107 242.583C881.343 236.209 931.074 194.22 938.456 187.415L942.169 183.99L934.743 183.953C924.547 183.908 912.836 183.084 912.836 182.408C912.836 182.096 916.564 177.051 921.124 171.19C934.067 154.541 943.661 142.046 944.285 141.028C944.731 140.3 942.095 140.099 932.003 140.114L919.148 140.129L901.326 161.049C891.524 172.549 880.615 185.335 877.088 189.45C873.553 193.566 870.82 197.184 871.006 197.489C871.184 197.793 875.075 198.075 879.65 198.113C884.216 198.15 889.563 198.395 891.516 198.67L895.073 199.16L889.006 208.818C874.659 231.655 866.053 246.134 866.053 247.427ZM442.111 230.86C443.314 231.692 460.639 230.986 461.56 230.065C461.894 229.731 463.164 225.986 464.381 221.737C465.599 217.495 467.433 211.262 468.443 207.889L470.292 201.76H485.078C495.058 201.76 500.026 201.493 500.368 200.943C500.776 200.289 504.407 187.823 504.407 187.095C504.407 186.991 498.934 186.902 492.244 186.902C485.56 186.902 479.04 186.694 477.763 186.442C474.956 185.877 474.904 185.038 477.199 177.245L478.832 171.673L517.21 170.93L519.326 163.872C520.485 159.987 521.45 156.399 521.465 155.886C521.48 155.158 515.138 154.957 492.155 154.957C476.025 154.957 462.822 155.136 462.822 155.351C462.822 155.567 458.166 171.561 452.47 190.892C441.754 227.264 440.863 229.998 441.628 230.592C441.754 230.696 441.933 230.733 442.111 230.86ZM515.546 230.072C515.546 231.447 516.059 231.506 525.683 231.313L535.827 231.105L537.78 224.79C538.857 221.321 540.72 214.88 541.916 210.489L544.099 202.503L547.456 202.399C549.305 202.347 556.159 202.095 562.694 201.842L574.561 201.389L576.618 194.391C577.746 190.542 578.586 187.318 578.482 187.214C578.378 187.118 572.199 186.791 564.751 186.494C555.105 186.107 550.976 185.676 550.404 184.993C549.817 184.287 550.04 182.445 551.213 178.218C552.097 175.031 553.137 172.081 553.53 171.673C553.939 171.234 561.825 170.774 572.578 170.558L590.92 170.187L592.502 165.313C595.249 156.852 595.324 155.96 593.371 155.433C592.435 155.18 579.402 154.972 564.424 154.965C539.116 154.957 537.156 155.047 536.792 156.258C529.396 180.885 515.546 229.01 515.546 230.072ZM1418.42 217.733C1415.08 219.553 1413.47 219.924 1408.15 220.103C1403.99 220.244 1400.89 219.954 1399.06 219.248C1391.77 216.462 1384.99 209.524 1382.14 201.946C1379.94 196.099 1380.31 186.078 1382.93 180.588C1385.31 175.625 1390.9 170.15 1395.96 167.832C1399.78 166.086 1400.71 165.967 1408.76 166.235C1418.72 166.569 1420.28 167.156 1425.82 172.698C1431.29 178.173 1432.87 182.073 1433.23 190.988C1433.49 197.295 1433.29 199.071 1431.92 202.711C1429.91 208.053 1423.89 214.754 1418.42 217.733ZM79.2405 218.795C73.9161 220.786 66.5421 220.786 61.3811 218.802C55.7893 216.648 49.0391 210.192 46.0687 204.152C43.8483 199.643 43.6256 198.581 43.6404 192.489C43.6478 186.813 43.9523 185.142 45.6157 181.568C48.2742 175.863 52.8858 171.056 58.2993 168.352C62.4653 166.272 63.3935 166.101 70.7007 166.101C77.7108 166.101 79.04 166.316 82.456 168.018C87.0898 170.328 91.7756 175.402 94.4118 180.959C96.0975 184.518 96.35 186.003 96.35 192.489C96.35 199.398 96.1718 200.289 93.9217 204.873C90.8771 211.061 84.9883 216.641 79.2405 218.795ZM62.7177 215.029C70.3368 217.963 78.6093 216.329 85.0922 210.623C96.9812 200.156 94.8722 179.488 81.1267 171.747C77.4509 169.682 76.4187 169.451 70.7304 169.459C65.6956 169.459 63.6237 169.823 60.4974 171.227C55.4997 173.471 50.4723 178.99 48.7272 184.139C46.893 189.577 47.0341 197.422 49.0539 201.991C51.2075 206.857 57.7795 213.134 62.7177 215.029ZM1400.41 215.497C1404.72 217.138 1412.08 216.551 1416.72 214.196C1421.26 211.893 1426.29 206.597 1428.41 201.894C1430.76 196.686 1430.62 188.596 1428.07 183.099C1424.19 174.696 1417.77 170.075 1408.88 169.266C1402.27 168.671 1397.2 170.514 1391.88 175.447C1385.92 180.959 1384.07 185.61 1384.61 193.715C1385.26 203.692 1391.3 212.012 1400.41 215.497ZM801.617 214.204C799.761 215.645 782.228 215.497 781.671 214.04C781.344 213.171 785.555 197.749 792.996 172.601C793.337 171.442 794.511 171.301 803.682 171.301C809.348 171.301 814.16 171.584 814.368 171.925C815.244 173.344 803.318 212.889 801.617 214.204ZM635.855 214.39C633.723 215.526 618.389 215.348 617.409 214.167C616.503 213.082 616.911 211.359 623.565 188.017C625.993 179.481 628.31 172.765 628.993 172.23C630.716 170.893 649.214 170.915 649.214 172.26C649.214 173.173 643.355 193.663 639.233 207.146C637.964 211.292 636.738 213.914 635.855 214.39ZM1295.85 213.81C1293.97 215.69 1278.4 215.794 1277.69 213.936C1277.33 213.008 1282.52 192.868 1288.32 172.601C1288.65 171.45 1289.79 171.301 1298.3 171.301C1306.94 171.301 1307.9 171.428 1307.91 172.601C1307.91 175.566 1297.09 212.57 1295.85 213.81ZM726.199 189.696C725.122 190.773 723.177 191.033 714.622 191.241C708.971 191.382 704.174 191.219 703.966 190.869C703.765 190.528 704.812 186.07 706.297 180.959L708.993 171.673L720.073 171.465C726.169 171.353 731.39 171.517 731.679 171.836C732.459 172.691 727.699 188.195 726.199 189.696ZM1089.52 192.875C1088.79 193.269 1084.49 193.588 1079.97 193.588C1072.91 193.588 1071.75 193.418 1071.75 192.392C1071.75 190.906 1076.88 171.866 1077.43 171.324C1077.95 170.811 1096.22 171.019 1096.75 171.546C1097.13 171.933 1093.33 185.818 1091.66 190.089C1091.22 191.226 1090.26 192.481 1089.52 192.875ZM407.714 198.603C406.622 199.925 389.787 199.524 388.377 198.142C388.065 197.838 390.812 191.508 394.473 184.079L401.127 170.558H409.563L409.021 184.116C408.724 191.575 408.13 198.09 407.714 198.603ZM1403.11 201.225C1400.75 203.566 1398.49 205.475 1398.08 205.475C1397.67 205.475 1396.59 204.732 1395.69 203.826L1394.04 202.169L1398.65 197.518L1403.26 192.86L1400.68 190.067C1399.25 188.529 1397.28 186.345 1396.29 185.208L1394.49 183.151L1398.5 179.124L1407.53 188.158L1412.11 183.834C1414.63 181.457 1416.93 179.503 1417.23 179.488C1417.53 179.481 1418.33 180.328 1419.01 181.375C1420.25 183.269 1420.24 183.307 1415.92 187.667L1411.59 192.051L1415.81 196.478C1418.13 198.915 1420.03 201.114 1420.03 201.359C1420.03 202.347 1417.58 205.475 1416.81 205.475C1416.36 205.475 1414.06 203.566 1411.7 201.225L1407.41 196.976L1403.11 201.225ZM65.5322 201.389C63.3118 203.632 61.3217 205.46 61.0989 205.438C60.0964 205.334 57.3636 202.971 57.3636 202.199C57.3636 201.723 59.1978 199.524 61.4479 197.303C63.698 195.082 65.5322 192.905 65.5322 192.467C65.5322 192.021 64.1658 190.342 62.5024 188.722C58.2473 184.599 57.6978 183.388 59.2795 181.642C59.985 180.855 60.9207 180.216 61.3588 180.216C61.7895 180.216 64.0767 182.125 66.4382 184.466C68.7996 186.798 70.7304 188.336 70.7304 187.883C70.7304 187.422 72.7577 185.29 75.2379 183.143L79.7455 179.235L81.7134 181.212L83.6887 183.18L79.0697 187.846L74.4582 192.504L83.7036 201.753L81.6763 203.781L79.649 205.809L75.3568 201.552C72.9879 199.22 70.723 197.303 70.3145 197.303C69.8987 197.303 67.7526 199.145 65.5322 201.389ZM0.354391 205.475C0.354391 206.901 0.510337 207.488 0.695986 206.775C0.881636 206.062 0.881636 204.888 0.695986 204.175C0.510337 203.462 0.354391 204.048 0.354391 205.475ZM0.324687 178.359C0.309835 179.585 0.465781 180.179 0.673708 179.674C0.87421 179.169 0.889062 178.166 0.695986 177.445C0.510337 176.724 0.346965 177.133 0.324687 178.359Z" fill="#030303"/>
<path d="M0.183594 163.174C0.183594 162.892 0.183594 162.617 0.183594 162.349C0.19102 167.126 0.458355 169.734 0.91134 169.451C1.31977 169.199 1.60938 168.263 1.5574 167.364C1.51284 166.465 1.84701 163.553 2.30742 160.901C3.33221 154.98 3.39162 154.296 2.04009 154.222C3.39162 154.296 3.33221 154.98 2.31485 160.901C1.86186 163.553 1.54255 166.955 1.60196 168.456C1.66879 169.957 1.37918 171.398 0.955895 171.658C0.436077 171.977 0.183594 169.162 0.183594 163.174ZM0.814802 213.647C1.16382 213.647 1.66136 216.641 1.92127 220.303C2.18118 223.966 2.47822 227.368 2.58961 227.873C2.64902 228.156 2.51535 228.445 2.26287 228.683C2.56733 228.096 2.40396 226.514 1.98068 221.618C1.69849 218.438 1.1861 215.66 0.829654 215.445C0.480633 215.229 0.19102 218.164 0.183594 222.004C0.183594 221.841 0.183594 221.677 0.183594 221.499C0.183594 217.183 0.465781 213.647 0.814802 213.647ZM0.354391 205.475C0.354391 204.048 0.510337 203.462 0.695986 204.175C0.881636 204.888 0.881636 206.062 0.695986 206.775C0.510337 207.488 0.354391 206.901 0.354391 205.475ZM0.324687 178.359C0.346965 177.133 0.510337 176.724 0.695986 177.445C0.889062 178.166 0.87421 179.169 0.673708 179.674C0.465781 180.179 0.309835 179.585 0.324687 178.359ZM0.569745 228.683C0.376669 228.26 0.280131 227.457 0.235576 226.046C0.280131 227.435 0.384095 228.245 0.569745 228.683Z" fill="#2D2D2D"/>
<path d="M734.241 91.8479C620.29 91.8924 519.957 92.0782 511.277 92.2565C500.888 92.4645 495.496 92.3159 495.496 91.8181C495.496 91.3278 504.593 91.0604 522.044 91.053C536.644 91.053 636.345 90.8375 743.591 90.5849C885.538 90.2506 938.983 90.3472 940.008 90.9415C941.048 91.5433 886.073 91.7884 734.241 91.8479ZM980.784 91.0678C981.081 91.5507 976.796 91.7736 968.39 91.7067C959.07 91.6324 956.657 91.4467 959.62 91.0381C965.761 90.1838 980.249 90.206 980.784 91.0678ZM1004.92 91.0678C1004.92 91.5136 1002.14 91.8033 998.049 91.7959C993.341 91.7884 991.529 91.5581 992.294 91.0678C993.779 90.1095 1004.92 90.1095 1004.92 91.0678ZM0.183594 162.06C0.183594 161.703 0.183594 161.361 0.183594 161.042C0.213298 167.29 0.970747 168.025 1.95098 163.204C1.69107 165.061 1.5277 166.725 1.5574 167.364C1.60938 168.263 1.31977 169.199 0.91134 169.451C0.450929 169.734 0.183594 167.015 0.183594 162.06ZM733.87 353.312C734.739 353.877 734.531 354.033 732.942 354.04C731.821 354.048 730.9 353.721 730.9 353.312C730.9 352.376 732.415 352.376 733.87 353.312ZM1057.64 74.724C1057.64 75.6526 1056.86 75.6526 1055.42 74.724C1054.52 74.1445 1054.62 74.0033 1055.97 73.9959C1056.89 73.9885 1057.64 74.3154 1057.64 74.724ZM0.829654 215.445C1.1861 215.66 1.69849 218.438 1.98068 221.618C2.05494 222.539 2.1292 223.349 2.18861 224.055C2.14405 223.602 2.09207 223.096 2.04009 222.554C1.30492 215.199 0.205872 215.348 0.183594 222.695C0.183594 222.532 0.183594 222.368 0.183594 222.198C0.183594 218.268 0.473207 215.222 0.829654 215.445Z" fill="white"/>
<path d="M0.287545 221.306C0.591973 217.718 1.52753 218.238 2.09927 223.296C2.12154 223.49 2.14382 223.675 2.15867 223.861C1.90621 222.873 1.56466 221.974 1.22311 221.491C0.666224 220.697 0.406346 220.481 0.287545 221.306ZM2.20322 228.816C2.11412 228.882 2.01759 228.934 1.89879 228.979C2.15124 228.86 2.32944 228.667 2.44082 228.37C2.38884 228.578 2.31459 228.712 2.20322 228.816ZM0.191019 223.46C0.183594 223.735 0.183594 224.032 0.183594 224.351C0.183594 224.27 0.183594 224.188 0.183594 224.099C0.183594 223.883 0.183594 223.668 0.191019 223.46Z" fill="#A3A3A3"/>
<path d="M721.617 381.067C713.857 380.087 687.458 376.625 662.952 373.378C617.357 367.331 560.681 359.82 500.694 351.879C482.107 349.42 451.371 345.378 432.375 342.889C397.659 338.35 384.285 336.619 326.184 329.176C247.528 319.102 234.971 317.475 219.621 315.424C210.636 314.221 187.244 311.212 167.639 308.746C148.035 306.279 125.98 303.434 118.628 302.431C111.276 301.428 91.731 298.902 75.186 296.822C58.6409 294.742 43.633 292.714 41.821 292.313C37.7739 291.421 32.2267 287.439 29.7019 283.621C27.0285 279.587 22.8105 271.051 19.8402 263.681C15.5851 253.125 12.934 242.761 9.43636 222.933C8.29276 216.462 7.69126 192.608 8.33732 179.421C9.43636 157.09 12.8523 140.166 20.308 120.152C26.1745 104.433 31.1945 96.5059 36.8976 93.98C40.6849 92.3085 56.3685 90.1244 132.366 80.6821C234.221 68.0304 305.124 59.5613 349.947 54.6953C361.584 53.4324 379.465 51.4043 389.676 50.1933C399.887 48.975 419.603 46.6423 433.489 45.0005C447.376 43.3512 466.929 41.0185 476.931 39.8001C486.934 38.5892 508.158 36.0782 524.086 34.2284C558.335 30.2464 630.619 21.5619 659.982 17.8994C727.38 9.49714 737.256 8.42736 747.608 8.43479C760.307 8.44965 771.349 9.55657 827.066 16.421C838.502 17.8251 861.56 20.6704 878.305 22.7282C963.801 33.27 1092.66 48.6407 1152.32 55.4159C1170.41 57.4664 1206.98 61.8792 1257.4 68.075C1267.4 69.3082 1298.16 73.3273 1325.72 77.0047C1353.29 80.6895 1387.33 85.1915 1401.37 87.019C1441.71 92.2639 1439.2 91.6696 1444.28 97.1819C1452.64 106.26 1461.59 130.887 1466.06 157.142C1468.89 173.686 1469.26 207.057 1466.82 223.862C1464.53 239.604 1457.26 263.956 1451.2 276.199C1444.97 288.776 1442.82 290.552 1431.17 292.714C1424.76 293.903 1356.73 303.077 1323.49 307.238C1313.49 308.493 1291.43 311.338 1274.48 313.56C1239.32 318.181 1174.59 326.523 1156.41 328.789C1149.67 329.629 1136.64 331.308 1127.45 332.526C1118.25 333.744 1101.72 335.921 1090.69 337.362C1049.74 342.704 1002.17 348.959 972.244 352.941C955.298 355.192 932.404 358.223 921.376 359.664C910.348 361.105 892.972 363.431 882.761 364.82C872.55 366.209 859.02 368.037 852.686 368.876C826.732 372.308 801.476 375.674 783.253 378.133C755.91 381.832 746.932 383.073 738.006 382.739C733.373 382.568 728.761 381.966 721.617 381.067ZM1354.21 267.671C1357.04 265.628 1359.49 263.027 1361.22 260.219L1363.87 255.903L1364.42 237.932C1365.12 215.578 1365.11 163.375 1364.42 143.071C1363.85 126.274 1363.67 125.568 1358.54 119.892C1357.04 118.221 1354.54 116.059 1353 115.086L1350.2 113.318L127.539 113.726L124.079 115.762C120.321 117.968 117.12 121.616 114.64 126.512C113.066 129.632 113.058 129.818 113.058 191.731C113.058 253.749 113.058 253.823 114.648 256.951C117.224 262.002 119.63 264.706 124.368 267.871L128.824 270.85L739.336 270.828L1349.85 270.798L1354.21 267.671ZM191.774 267.321L129.024 267.121L125.334 264.328C123.306 262.797 120.633 259.9 119.393 257.894L117.143 254.254V129.327L118.784 126.267C120.633 122.797 124.079 119.632 127.91 117.887C130.287 116.802 183.368 116.676 739.306 116.475L1348.1 116.245L1351.31 118.132C1354.97 120.271 1357.79 123.369 1359.96 127.634C1361.43 130.509 1361.45 131.645 1361.22 191.976C1361.01 250.272 1360.93 253.526 1359.61 255.992C1357.18 260.546 1354.58 263.518 1351.1 265.732L1347.71 267.879L801.112 267.7C500.487 267.596 226.29 267.425 191.774 267.321ZM1348.61 261.2C1353.43 257.708 1355.46 254.024 1356.28 247.263C1356.68 243.898 1356.89 218.268 1356.76 186.865L1356.54 132.299L1354.51 128.852C1353.4 126.95 1351.5 124.565 1350.29 123.548L1348.09 121.705L1316.67 121.185C1299.39 120.903 1026.1 120.791 709.364 120.933C263.947 121.133 132.908 121.393 130.948 122.084C127.732 123.221 125.222 125.561 123.195 129.327C121.598 132.299 121.598 132.299 121.598 192.103C121.598 246.639 121.309 253.087 124.368 256.676C125.059 257.485 125.913 258.147 126.982 259.179C128.586 260.732 130.866 262.292 132.062 262.649C133.279 263.013 398.015 263.325 739.885 263.354L1345.55 263.421L1348.61 261.2ZM764.317 361.061C771.46 360.065 789.847 357.577 805.159 355.526C939.02 337.615 1039.81 323.901 1056.46 321.338C1068.91 319.421 1070.37 318.916 1073.52 315.424C1077.51 311.012 1078.7 308.189 1078.69 303.167C1078.67 296.547 1076.22 291.414 1071.83 288.836L1068.41 286.823H408.753L405.894 289.096C396.857 296.287 397.741 311.598 407.521 317.334C409.37 318.418 412.162 319.592 413.729 319.949C417.895 320.885 458.262 326.59 497.353 331.768C516.14 334.257 543.876 337.942 558.988 339.955C629.535 349.375 676.623 355.608 687.829 357.012C694.572 357.852 706.097 359.412 713.449 360.474C738.177 364.04 742.484 364.084 764.317 361.061ZM1075.59 96.8179C1082.22 91.8256 1084.23 83.2228 1080.47 75.8383C1077.34 69.6722 1075.98 68.8402 1066.44 67.2578C1057.6 65.7794 1031.86 62.3769 1010.49 59.8511C988.403 57.2435 968.145 54.7548 907.638 47.2366C786.32 32.1631 755.821 28.6566 746.361 28.6789C742.959 28.6863 735.17 29.3549 729.043 30.1647C713.515 32.2077 672.628 37.2668 618.025 43.8935C592.494 46.984 562.256 50.6688 550.82 52.0803C539.384 53.4844 518.829 55.988 505.15 57.6447C415.4 68.491 411.612 69.0185 407.692 71.21C406.169 72.057 404.105 73.9514 403.11 75.4149C398.409 82.309 399.04 89.5895 404.862 95.6293L408.338 99.2398H1072.38L1075.59 96.8179ZM716.048 358.112C706.045 356.693 677.47 352.852 652.556 349.568C627.642 346.292 588.544 341.099 565.672 338.031C522.742 332.281 518.695 331.746 489.927 328.017C442.549 321.865 413.298 317.452 410.536 316.041C408.152 314.815 404.892 311.576 403.644 309.191C402.204 306.42 402.196 299.177 403.637 296.399C404.907 293.969 407.357 291.577 410.098 290.091C411.65 289.244 465.191 289.126 740.182 289.341C1060.72 289.586 1068.45 289.631 1070.39 290.998C1074.29 293.776 1076.65 301.495 1075.23 306.881C1075.01 307.698 1074.81 308.605 1074.78 308.902C1074.66 309.994 1069.97 314.793 1068.05 315.788C1065.39 317.17 1031.66 322.304 983.012 328.752C970.618 330.386 927.822 336.166 894.271 340.728C882.226 342.369 868.689 344.182 864.196 344.754C846.782 346.983 794.124 354.182 773.97 357.079C744.965 361.261 739.068 361.365 716.048 358.112ZM409.749 96.127C405.196 93.4377 403.414 90.2432 403.414 84.7532C403.414 77.2647 407.112 73.253 415.37 71.7598C420.657 70.8089 443.009 67.9339 473.04 64.3531C486.414 62.7558 521.918 58.4173 551.934 54.7102C581.949 51.0031 621.886 46.1297 640.674 43.8787C659.462 41.6277 686.53 38.3069 700.825 36.4942C736.187 32.0145 743.784 30.9819 751.329 31.3013C753.905 31.4053 756.482 31.6728 760.151 32.0219C767.138 32.6683 790.07 35.3501 811.1 37.9726C911.373 50.4608 1018.56 63.7736 1038.34 66.1806C1072.06 70.2963 1074.66 70.9352 1077.69 75.8383C1081.42 81.8707 1080.08 88.8391 1074.19 94.0246L1070.8 97.0111H806.288C660.813 97.0111 512.739 97.2042 477.243 97.4419L412.697 97.8654L409.749 96.127ZM753.801 352.926C763.507 351.76 777.186 349.917 809.244 345.46C819.454 344.041 831.655 342.369 836.349 341.753C841.042 341.129 847.064 340.319 849.715 339.948C852.366 339.569 858.552 338.752 863.453 338.12C868.355 337.489 879.553 335.988 888.33 334.784C897.108 333.581 906.39 332.37 908.952 332.088C911.514 331.805 913.779 331.3 913.987 330.958C914.195 330.624 914.789 330.513 915.309 330.706C915.829 330.906 925.594 329.866 937.008 328.388C948.421 326.91 960.437 325.394 963.704 325.015C966.972 324.636 971.65 323.99 974.1 323.567C976.551 323.151 980.064 322.683 981.898 322.534C983.732 322.378 992.428 321.234 1001.21 319.986C1019.05 317.445 1035.19 315.246 1048.02 313.604C1062.07 311.799 1063.9 311.257 1066.89 307.943C1070.13 304.355 1070.33 301.361 1067.64 297.394L1065.76 294.623L738.511 294.809L411.271 294.995L409.57 297.52C407.164 301.086 407.298 305.105 409.919 308.04C411.56 309.875 413.15 310.603 417.902 311.688C421.162 312.438 425.506 313.248 427.549 313.493C429.591 313.738 441.287 315.231 453.539 316.814C465.792 318.396 476.486 319.718 477.303 319.755C478.119 319.793 484.974 320.677 492.526 321.724C500.078 322.779 525.312 326.137 548.592 329.198C571.872 332.259 592.093 334.926 593.519 335.111C617.282 338.321 644.84 341.961 658.125 343.662C676.326 345.987 720.63 352.101 727.187 353.201C733.551 354.263 743.524 354.159 753.801 352.926ZM1054.83 91.6102L1067.97 91.4244L1070.5 88.9654C1072.64 86.8927 1073.01 86.0607 1072.87 83.5571C1072.67 80.0877 1069.83 76.6407 1066.25 75.5412C1064.99 75.1474 1059.11 74.308 1053.19 73.6691C1047.27 73.0302 1039.58 72.1684 1036.11 71.7598C1032.63 71.3438 1025.29 70.4969 1019.77 69.8654C1014.25 69.2414 1008.24 68.4093 1006.4 68.023C1003.33 67.3767 978.11 64.2788 954.793 61.686C949.483 61.0991 940.127 59.9922 934 59.227C927.874 58.4693 910.326 56.2926 895.014 54.3907C879.701 52.4815 864.991 50.5871 862.34 50.1636C858.151 49.5024 779.406 39.7778 770.257 38.7972C750.816 36.7022 747.66 36.5759 738.437 37.4748C733.269 37.9726 727.038 38.7155 724.588 39.1092C722.137 39.5104 709.104 41.1671 695.626 42.794C682.148 44.421 656.581 47.5932 638.818 49.8367C590.541 55.9434 564.053 59.2196 558.246 59.8288C553.1 60.3637 543.364 61.5449 520.373 64.4274C513.838 65.252 505.648 66.2177 502.18 66.5818C489.481 67.9041 455.634 71.8415 450.94 72.5398C441.948 73.8771 430.534 75.4 426.806 75.7715C415.199 76.9155 411.048 78.3642 409.466 81.8261C406.979 87.2939 410.291 91.2833 417.895 91.9816C420.642 92.2268 1036.54 91.8776 1054.83 91.6102ZM1418.42 217.733C1423.89 214.754 1429.91 208.053 1431.92 202.711C1433.29 199.071 1433.49 197.295 1433.23 190.988C1432.87 182.073 1431.29 178.173 1425.82 172.698C1420.28 167.156 1418.72 166.569 1408.76 166.235C1400.71 165.967 1399.78 166.086 1395.96 167.832C1390.9 170.15 1385.31 175.625 1382.93 180.588C1380.31 186.078 1379.94 196.099 1382.14 201.946C1384.99 209.524 1391.77 216.462 1399.06 219.248C1400.89 219.954 1403.99 220.244 1408.15 220.103C1413.47 219.924 1415.08 219.553 1418.42 217.733ZM79.2405 218.795C84.9883 216.641 90.8771 211.061 93.9217 204.873C96.1718 200.289 96.35 199.398 96.35 192.489C96.35 186.003 96.0975 184.518 94.4118 180.959C91.7756 175.402 87.0898 170.328 82.456 168.018C79.04 166.316 77.7108 166.101 70.7007 166.101C63.3935 166.101 62.4653 166.272 58.2993 168.352C52.8858 171.056 48.2742 175.863 45.6157 181.568C43.9523 185.142 43.6478 186.813 43.6404 192.489C43.6256 198.581 43.8483 199.643 46.0687 204.152C49.0391 210.192 55.7893 216.648 61.3811 218.802C66.5421 220.786 73.9161 220.786 79.2405 218.795ZM62.7177 215.029C57.7795 213.134 51.2075 206.857 49.0539 201.991C47.0341 197.422 46.893 189.577 48.7272 184.139C50.4723 178.99 55.4997 173.471 60.4974 171.227C63.6237 169.823 65.6956 169.459 70.7304 169.459C76.4187 169.451 77.4509 169.682 81.1267 171.747C94.8722 179.488 96.9812 200.156 85.0922 210.623C78.6093 216.329 70.3368 217.963 62.7177 215.029ZM1400.41 215.497C1391.3 212.012 1385.26 203.692 1384.61 193.715C1384.07 185.61 1385.92 180.959 1391.88 175.447C1397.2 170.514 1402.27 168.671 1408.88 169.266C1417.77 170.076 1424.19 174.696 1428.07 183.099C1430.62 188.596 1430.76 196.686 1428.41 201.894C1426.29 206.597 1421.26 211.893 1416.72 214.196C1412.08 216.551 1404.72 217.138 1400.41 215.497ZM1403.11 201.225L1407.41 196.976L1411.7 201.225C1414.06 203.566 1416.36 205.475 1416.81 205.475C1417.58 205.475 1420.03 202.347 1420.03 201.359C1420.03 201.114 1418.13 198.915 1415.81 196.478L1411.59 192.051L1415.92 187.667C1420.24 183.307 1420.25 183.269 1419.01 181.375C1418.33 180.328 1417.53 179.481 1417.23 179.488C1416.93 179.503 1414.63 181.457 1412.11 183.834L1407.53 188.158L1398.5 179.124L1394.48 183.151L1396.29 185.208C1397.28 186.345 1399.25 188.529 1400.68 190.067L1403.26 192.86L1398.65 197.518L1394.04 202.169L1395.69 203.826C1396.59 204.732 1397.67 205.475 1398.08 205.475C1398.49 205.475 1400.75 203.566 1403.11 201.225ZM65.5322 201.389C67.7526 199.145 69.8987 197.303 70.3145 197.303C70.723 197.303 72.9879 199.22 75.3568 201.552L79.649 205.809L81.6763 203.781L83.7036 201.753L74.4582 192.504L79.0697 187.846L83.6887 183.18L81.7134 181.212L79.7455 179.236L75.2379 183.143C72.7577 185.29 70.7304 187.422 70.7304 187.883C70.7304 188.336 68.7996 186.798 66.4382 184.466C64.0767 182.125 61.7895 180.216 61.3588 180.216C60.9207 180.216 59.985 180.855 59.2795 181.643C57.6978 183.388 58.2473 184.599 62.5024 188.722C64.1658 190.342 65.5322 192.021 65.5322 192.467C65.5322 192.905 63.698 195.082 61.4479 197.303C59.1978 199.524 57.3636 201.723 57.3636 202.199C57.3636 202.971 60.0964 205.334 61.0989 205.438C61.3217 205.46 63.3118 203.632 65.5322 201.389ZM0.183594 160.678C0.183594 154.712 0.294983 154.215 1.66879 154.215C3.38419 154.215 3.40647 154.437 2.35941 160.901C1.17867 168.248 0.183594 168.144 0.183594 160.678ZM1.22323 221.492C1.80246 222.309 2.38168 224.307 2.52278 225.919C2.72328 228.245 2.50792 228.906 1.48314 229.107C0.354391 229.322 0.183594 228.728 0.183594 224.679C0.183594 220.452 0.280131 220.147 1.22323 221.492Z" fill="#818589"/>
<path d="M753.801 352.926C763.507 351.76 777.186 349.917 809.244 345.46C819.454 344.041 831.655 342.369 836.349 341.753C841.042 341.129 847.064 340.319 849.715 339.948C852.366 339.569 858.552 338.752 863.453 338.12C868.355 337.489 879.553 335.988 888.33 334.784C897.108 333.581 906.39 332.37 908.952 332.088C911.514 331.805 913.779 331.3 913.987 330.958C914.195 330.624 914.789 330.513 915.309 330.706C915.829 330.906 925.594 329.866 937.008 328.388C948.421 326.91 960.437 325.394 963.704 325.015C966.972 324.636 971.65 323.99 974.1 323.567C976.551 323.151 980.064 322.683 981.898 322.534C983.732 322.378 992.428 321.234 1001.21 319.986C1019.05 317.445 1035.19 315.246 1048.02 313.604C1062.07 311.799 1063.9 311.257 1066.89 307.943C1070.13 304.355 1070.33 301.361 1067.64 297.394L1065.76 294.623L738.511 294.809L411.271 294.995L409.57 297.52C407.164 301.086 407.298 305.105 409.919 308.04C411.56 309.875 413.15 310.603 417.902 311.688C421.162 312.438 425.506 313.248 427.549 313.493C429.591 313.738 441.287 315.231 453.539 316.814C465.792 318.396 476.486 319.718 477.303 319.755C478.119 319.793 484.974 320.677 492.526 321.724C500.078 322.779 525.312 326.137 548.592 329.198C571.872 332.259 592.093 334.926 593.519 335.111C617.282 338.321 644.84 341.961 658.125 343.662C676.326 345.987 720.63 352.101 727.187 353.201C733.551 354.263 743.524 354.159 753.801 352.926Z" fill="#FFFFFF"/>
<path d="M1054.83 91.6102L1067.97 91.4244L1070.5 88.9654C1072.64 86.8927 1073.01 86.0607 1072.87 83.5571C1072.67 80.0877 1069.83 76.6407 1066.25 75.5412C1064.99 75.1474 1059.11 74.308 1053.19 73.6691C1047.27 73.0302 1039.58 72.1684 1036.11 71.7598C1032.63 71.3438 1025.29 70.4969 1019.77 69.8654C1014.25 69.2414 1008.24 68.4093 1006.4 68.023C1003.33 67.3767 978.11 64.2788 954.793 61.686C949.483 61.0991 940.127 59.9922 934 59.227C927.874 58.4693 910.326 56.2926 895.014 54.3907C879.701 52.4815 864.991 50.5871 862.34 50.1636C858.151 49.5024 779.406 39.7778 770.257 38.7972C750.816 36.7022 747.66 36.5759 738.437 37.4748C733.269 37.9726 727.038 38.7155 724.588 39.1092C722.137 39.5104 709.104 41.1671 695.626 42.794C682.148 44.421 656.581 47.5932 638.818 49.8367C590.541 55.9434 564.053 59.2196 558.246 59.8288C553.1 60.3637 543.364 61.5449 520.373 64.4274C513.838 65.252 505.648 66.2177 502.18 66.5818C489.481 67.9041 455.634 71.8415 450.94 72.5398C441.948 73.8771 430.534 75.4 426.806 75.7715C415.199 76.9155 411.048 78.3642 409.466 81.8261C406.979 87.2939 410.291 91.2833 417.895 91.9816C420.642 92.2268 1036.54 91.8776 1054.83 91.6102Z" fill="#FFFFFF"/>
<path d="M721.617 381.067C713.857 380.087 687.458 376.625 662.952 373.378C617.357 367.331 560.681 359.82 500.694 351.879C482.107 349.42 451.371 345.378 432.375 342.889C397.659 338.35 384.285 336.619 326.184 329.176C247.528 319.102 234.971 317.475 219.621 315.424C210.636 314.221 187.244 311.212 167.639 308.746C148.035 306.279 125.98 303.434 118.628 302.431C111.276 301.428 91.731 298.902 75.186 296.822C58.6409 294.742 43.633 292.714 41.821 292.313C37.7739 291.421 32.2267 287.439 29.7019 283.621C27.0285 279.587 22.8105 271.051 19.8402 263.681C15.5851 253.125 12.934 242.761 9.43636 222.933C8.29276 216.462 7.69126 192.608 8.33732 179.421C9.43636 157.09 12.8523 140.166 20.308 120.152C26.1745 104.433 31.1945 96.5059 36.8976 93.98C40.6849 92.3085 56.3685 90.1244 132.366 80.6821C234.221 68.0304 305.124 59.5613 349.947 54.6953C361.584 53.4324 379.465 51.4043 389.676 50.1933C399.887 48.975 419.603 46.6423 433.489 45.0005C447.376 43.3512 466.929 41.0185 476.931 39.8001C486.934 38.5892 508.158 36.0782 524.086 34.2284C558.335 30.2464 630.619 21.5619 659.982 17.8994C727.38 9.49714 737.256 8.42736 747.608 8.43479C760.307 8.44965 771.349 9.55657 827.066 16.421C838.502 17.8251 861.56 20.6704 878.305 22.7282C963.801 33.27 1092.66 48.6407 1152.32 55.4159C1170.41 57.4664 1206.98 61.8792 1257.4 68.075C1267.4 69.3082 1298.16 73.3273 1325.72 77.0047C1353.29 80.6895 1387.33 85.1915 1401.37 87.019C1441.71 92.2639 1439.2 91.6696 1444.28 97.1819C1452.64 106.26 1461.59 130.887 1466.06 157.142C1468.89 173.686 1469.26 207.057 1466.82 223.862C1464.53 239.604 1457.26 263.956 1451.2 276.199C1444.97 288.776 1442.82 290.552 1431.17 292.714C1424.76 293.903 1356.73 303.077 1323.49 307.238C1313.49 308.493 1291.43 311.338 1274.48 313.56C1239.32 318.181 1174.59 326.523 1156.41 328.789C1149.67 329.629 1136.64 331.308 1127.45 332.526C1118.25 333.744 1101.72 335.921 1090.69 337.362C1049.74 342.704 1002.17 348.959 972.244 352.941C955.298 355.192 932.404 358.223 921.376 359.664C910.348 361.105 892.972 363.431 882.761 364.82C872.55 366.209 859.02 368.037 852.686 368.876C826.732 372.308 801.476 375.674 783.253 378.133C755.91 381.832 746.932 383.073 738.006 382.739C733.373 382.568 728.761 381.966 721.617 381.067ZM1354.21 267.671C1357.04 265.628 1359.49 263.027 1361.22 260.219L1363.87 255.903L1364.42 237.932C1365.12 215.578 1365.11 163.375 1364.42 143.071C1363.85 126.274 1363.67 125.568 1358.54 119.892C1357.04 118.221 1354.54 116.059 1353 115.086L1350.2 113.318L127.539 113.726L124.079 115.762C120.321 117.968 117.12 121.616 114.64 126.512C113.066 129.632 113.058 129.818 113.058 191.731C113.058 253.749 113.058 253.823 114.648 256.951C117.224 262.002 119.63 264.706 124.368 267.871L128.824 270.85L739.336 270.828L1349.85 270.798L1354.21 267.671ZM191.774 267.321L129.024 267.121L125.334 264.328C123.306 262.797 120.633 259.9 119.393 257.894L117.143 254.254V129.327L118.784 126.267C120.633 122.797 124.079 119.632 127.91 117.887C130.287 116.802 183.368 116.676 739.306 116.475L1348.1 116.245L1351.31 118.132C1354.97 120.271 1357.79 123.369 1359.96 127.634C1361.43 130.509 1361.45 131.645 1361.22 191.976C1361.01 250.272 1360.93 253.526 1359.61 255.992C1357.18 260.546 1354.58 263.518 1351.1 265.732L1347.71 267.879L801.112 267.7C500.487 267.596 226.29 267.425 191.774 267.321ZM1348.61 261.2C1353.43 257.708 1355.46 254.024 1356.28 247.263C1356.68 243.898 1356.89 218.268 1356.76 186.865L1356.54 132.299L1354.51 128.852C1353.4 126.95 1351.5 124.565 1350.29 123.548L1348.09 121.705L1316.67 121.185C1299.39 120.903 1026.1 120.791 709.364 120.933C263.947 121.133 132.908 121.393 130.948 122.084C127.732 123.221 125.222 125.561 123.195 129.327C121.598 132.299 121.598 132.299 121.598 192.103C121.598 246.639 121.309 253.087 124.368 256.676C125.059 257.485 125.913 258.147 126.982 259.179C128.586 260.732 130.866 262.292 132.062 262.649C133.279 263.013 398.015 263.325 739.885 263.354L1345.55 263.421L1348.61 261.2ZM764.317 361.061C771.46 360.065 789.847 357.577 805.159 355.526C939.02 337.615 1039.81 323.901 1056.46 321.338C1068.91 319.421 1070.37 318.916 1073.52 315.424C1077.51 311.012 1078.7 308.189 1078.69 303.167C1078.67 296.547 1076.22 291.414 1071.83 288.836L1068.41 286.823H408.753L405.894 289.096C396.857 296.287 397.741 311.598 407.521 317.334C409.37 318.418 412.162 319.592 413.729 319.949C417.895 320.885 458.262 326.59 497.353 331.768C516.14 334.257 543.876 337.942 558.988 339.955C629.535 349.375 676.623 355.608 687.829 357.012C694.572 357.852 706.097 359.412 713.449 360.474C738.177 364.04 742.484 364.084 764.317 361.061ZM1075.59 96.8179C1082.22 91.8256 1084.23 83.2228 1080.47 75.8383C1077.34 69.6722 1075.98 68.8402 1066.44 67.2578C1057.6 65.7794 1031.86 62.3769 1010.49 59.8511C988.403 57.2435 968.145 54.7548 907.638 47.2366C786.32 32.1631 755.821 28.6566 746.361 28.6789C742.959 28.6863 735.17 29.3549 729.043 30.1647C713.515 32.2077 672.628 37.2668 618.025 43.8935C592.494 46.984 562.256 50.6688 550.82 52.0803C539.384 53.4844 518.829 55.988 505.15 57.6447C415.4 68.491 411.612 69.0185 407.692 71.21C406.169 72.057 404.105 73.9514 403.11 75.4149C398.409 82.309 399.04 89.5895 404.862 95.6293L408.338 99.2398H1072.38L1075.59 96.8179ZM716.048 358.112C706.045 356.693 677.47 352.852 652.556 349.568C627.642 346.292 588.544 341.099 565.672 338.031C522.742 332.281 518.695 331.746 489.927 328.017C442.549 321.865 413.298 317.452 410.536 316.041C408.152 314.815 404.892 311.576 403.644 309.191C402.204 306.42 402.196 299.177 403.637 296.399C404.907 293.969 407.357 291.577 410.098 290.091C411.65 289.244 465.191 289.126 740.182 289.341C1060.72 289.586 1068.45 289.631 1070.39 290.998C1074.29 293.776 1076.65 301.495 1075.23 306.881C1075.01 307.698 1074.81 308.605 1074.78 308.902C1074.66 309.994 1069.97 314.793 1068.05 315.788C1065.39 317.17 1031.66 322.304 983.012 328.752C970.618 330.386 927.822 336.166 894.271 340.728C882.226 342.369 868.689 344.182 864.196 344.754C846.782 346.983 794.124 354.182 773.97 357.079C744.965 361.261 739.068 361.365 716.048 358.112ZM409.749 96.127C405.196 93.4377 403.414 90.2432 403.414 84.7532C403.414 77.2647 407.112 73.253 415.37 71.7598C420.657 70.8089 443.009 67.9339 473.04 64.3531C486.414 62.7558 521.918 58.4173 551.934 54.7102C581.949 51.0031 621.886 46.1297 640.674 43.8787C659.462 41.6277 686.53 38.3069 700.825 36.4942C736.187 32.0145 743.784 30.9819 751.329 31.3013C753.905 31.4053 756.482 31.6728 760.151 32.0219C767.138 32.6683 790.07 35.3501 811.1 37.9726C911.373 50.4608 1018.56 63.7736 1038.34 66.1806C1072.06 70.2963 1074.66 70.9352 1077.69 75.8383C1081.42 81.8707 1080.08 88.8391 1074.19 94.0246L1070.8 97.0111H806.288C660.813 97.0111 512.739 97.2042 477.243 97.4419L412.697 97.8654L409.749 96.127ZM753.801 352.926C763.507 351.76 777.186 349.917 809.244 345.46C819.454 344.041 831.655 342.369 836.349 341.753C841.042 341.129 847.064 340.319 849.715 339.948C852.366 339.569 858.552 338.752 863.453 338.12C868.355 337.489 879.553 335.988 888.33 334.784C897.108 333.581 906.39 332.37 908.952 332.088C911.514 331.805 913.779 331.3 913.987 330.958C914.195 330.624 914.789 330.513 915.309 330.706C915.829 330.906 925.594 329.866 937.008 328.388C948.421 326.91 960.437 325.394 963.704 325.015C966.972 324.636 971.65 323.99 974.1 323.567C976.551 323.151 980.064 322.683 981.898 322.534C983.732 322.378 992.428 321.234 1001.21 319.986C1019.05 317.445 1035.19 315.246 1048.02 313.604C1062.07 311.799 1063.9 311.257 1066.89 307.943C1070.13 304.355 1070.33 301.361 1067.64 297.394L1065.76 294.623L738.511 294.809L411.271 294.995L409.57 297.52C407.164 301.086 407.298 305.105 409.919 308.04C411.56 309.875 413.15 310.603 417.902 311.688C421.162 312.438 425.506 313.248 427.549 313.493C429.591 313.738 441.287 315.231 453.539 316.814C465.792 318.396 476.486 319.718 477.303 319.755C478.119 319.793 484.974 320.677 492.526 321.724C500.078 322.779 525.312 326.137 548.592 329.198C571.872 332.259 592.093 334.926 593.519 335.111C617.282 338.321 644.84 341.961 658.125 343.662C676.326 345.987 720.63 352.101 727.187 353.201C733.551 354.263 743.524 354.159 753.801 352.926ZM1054.83 91.6102L1067.97 91.4244L1070.5 88.9654C1072.64 86.8927 1073.01 86.0607 1072.87 83.5571C1072.67 80.0877 1069.83 76.6407 1066.25 75.5412C1064.99 75.1474 1059.11 74.308 1053.19 73.6691C1047.27 73.0302 1039.58 72.1684 1036.11 71.7598C1032.63 71.3438 1025.29 70.4969 1019.77 69.8654C1014.25 69.2414 1008.24 68.4093 1006.4 68.023C1003.33 67.3767 978.11 64.2788 954.793 61.686C949.483 61.0991 940.127 59.9922 934 59.227C927.874 58.4693 910.326 56.2926 895.014 54.3907C879.701 52.4815 864.991 50.5871 862.34 50.1636C858.151 49.5024 779.406 39.7778 770.257 38.7972C750.816 36.7022 747.66 36.5759 738.437 37.4748C733.269 37.9726 727.038 38.7155 724.588 39.1092C722.137 39.5104 709.104 41.1671 695.626 42.794C682.148 44.421 656.581 47.5932 638.818 49.8367C590.541 55.9434 564.053 59.2196 558.246 59.8288C553.1 60.3637 543.364 61.5449 520.373 64.4274C513.838 65.252 505.648 66.2177 502.18 66.5818C489.481 67.9041 455.634 71.8415 450.94 72.5398C441.948 73.8771 430.534 75.4 426.806 75.7715C415.199 76.9155 411.048 78.3642 409.466 81.8261C406.979 87.2939 410.291 91.2833 417.895 91.9816C420.642 92.2268 1036.54 91.8776 1054.83 91.6102ZM1418.42 217.733C1423.89 214.754 1429.91 208.053 1431.92 202.711C1433.29 199.071 1433.49 197.295 1433.23 190.988C1432.87 182.073 1431.29 178.173 1425.82 172.698C1420.28 167.156 1418.72 166.569 1408.76 166.235C1400.71 165.967 1399.78 166.086 1395.96 167.832C1390.9 170.15 1385.31 175.625 1382.93 180.588C1380.31 186.078 1379.94 196.099 1382.14 201.946C1384.99 209.524 1391.77 216.462 1399.06 219.248C1400.89 219.954 1403.99 220.244 1408.15 220.103C1413.47 219.924 1415.08 219.553 1418.42 217.733ZM79.2405 218.795C84.9883 216.641 90.8771 211.061 93.9217 204.873C96.1718 200.289 96.35 199.398 96.35 192.489C96.35 186.003 96.0975 184.518 94.4118 180.959C91.7756 175.402 87.0898 170.328 82.456 168.018C79.04 166.316 77.7108 166.101 70.7007 166.101C63.3935 166.101 62.4653 166.272 58.2993 168.352C52.8858 171.056 48.2742 175.863 45.6157 181.568C43.9523 185.142 43.6478 186.813 43.6404 192.489C43.6256 198.581 43.8483 199.643 46.0687 204.152C49.0391 210.192 55.7893 216.648 61.3811 218.802C66.5421 220.786 73.9161 220.786 79.2405 218.795ZM62.7177 215.029C57.7795 213.134 51.2075 206.857 49.0539 201.991C47.0341 197.422 46.893 189.577 48.7272 184.139C50.4723 178.99 55.4997 173.471 60.4974 171.227C63.6237 169.823 65.6956 169.459 70.7304 169.459C76.4187 169.451 77.4509 169.682 81.1267 171.747C94.8722 179.488 96.9812 200.156 85.0922 210.623C78.6093 216.329 70.3368 217.963 62.7177 215.029ZM1400.41 215.497C1391.3 212.012 1385.26 203.692 1384.61 193.715C1384.07 185.61 1385.92 180.959 1391.88 175.447C1397.2 170.514 1402.27 168.671 1408.88 169.266C1417.77 170.076 1424.19 174.696 1428.07 183.099C1430.62 188.596 1430.76 196.686 1428.41 201.894C1426.29 206.597 1421.26 211.893 1416.72 214.196C1412.08 216.551 1404.72 217.138 1400.41 215.497ZM1403.11 201.225L1407.41 196.976L1411.7 201.225C1414.06 203.566 1416.36 205.475 1416.81 205.475C1417.58 205.475 1420.03 202.347 1420.03 201.359C1420.03 201.114 1418.13 198.915 1415.81 196.478L1411.59 192.051L1415.92 187.667C1420.24 183.307 1420.25 183.269 1419.01 181.375C1418.33 180.328 1417.53 179.481 1417.23 179.488C1416.93 179.503 1414.63 181.457 1412.11 183.834L1407.53 188.158L1398.5 179.124L1394.48 183.151L1396.29 185.208C1397.28 186.345 1399.25 188.529 1400.68 190.067L1403.26 192.86L1398.65 197.518L1394.04 202.169L1395.69 203.826C1396.59 204.732 1397.67 205.475 1398.08 205.475C1398.49 205.475 1400.75 203.566 1403.11 201.225ZM65.5322 201.389C67.7526 199.145 69.8987 197.303 70.3145 197.303C70.723 197.303 72.9879 199.22 75.3568 201.552L79.649 205.809L81.6763 203.781L83.7036 201.753L74.4582 192.504L79.0697 187.846L83.6887 183.18L81.7134 181.212L79.7455 179.236L75.2379 183.143C72.7577 185.29 70.7304 187.422 70.7304 187.883C70.7304 188.336 68.7996 186.798 66.4382 184.466C64.0767 182.125 61.7895 180.216 61.3588 180.216C60.9207 180.216 59.985 180.855 59.2795 181.643C57.6978 183.388 58.2473 184.599 62.5024 188.722C64.1658 190.342 65.5322 192.021 65.5322 192.467C65.5322 192.905 63.698 195.082 61.4479 197.303C59.1978 199.524 57.3636 201.723 57.3636 202.199C57.3636 202.971 60.0964 205.334 61.0989 205.438C61.3217 205.46 63.3118 203.632 65.5322 201.389ZM0.183594 160.678C0.183594 154.712 0.294983 154.215 1.66879 154.215C3.38419 154.215 3.40647 154.437 2.35941 160.901C1.17867 168.248 0.183594 168.144 0.183594 160.678ZM1.22323 221.492C1.80246 222.309 2.38168 224.307 2.52278 225.919C2.72328 228.245 2.50792 228.906 1.48314 229.107C0.354391 229.322 0.183594 228.728 0.183594 224.679C0.183594 220.452 0.280131 220.147 1.22323 221.492Z" stroke="#C1C1C1"/>
<path d="M753.801 352.926C763.507 351.76 777.186 349.917 809.244 345.46C819.454 344.041 831.655 342.369 836.349 341.753C841.042 341.129 847.064 340.319 849.715 339.948C852.366 339.569 858.552 338.752 863.453 338.12C868.355 337.489 879.553 335.988 888.33 334.784C897.108 333.581 906.39 332.37 908.952 332.088C911.514 331.805 913.779 331.3 913.987 330.958C914.195 330.624 914.789 330.513 915.309 330.706C915.829 330.906 925.594 329.866 937.008 328.388C948.421 326.91 960.437 325.394 963.704 325.015C966.972 324.636 971.65 323.99 974.1 323.567C976.551 323.151 980.064 322.683 981.898 322.534C983.732 322.378 992.428 321.234 1001.21 319.986C1019.05 317.445 1035.19 315.246 1048.02 313.604C1062.07 311.799 1063.9 311.257 1066.89 307.943C1070.13 304.355 1070.33 301.361 1067.64 297.394L1065.76 294.623L738.511 294.809L411.271 294.995L409.57 297.52C407.164 301.086 407.298 305.105 409.919 308.04C411.56 309.875 413.15 310.603 417.902 311.688C421.162 312.438 425.506 313.248 427.549 313.493C429.591 313.738 441.287 315.231 453.539 316.814C465.792 318.396 476.486 319.718 477.303 319.755C478.119 319.793 484.974 320.677 492.526 321.724C500.078 322.779 525.312 326.137 548.592 329.198C571.872 332.259 592.093 334.926 593.519 335.111C617.282 338.321 644.84 341.961 658.125 343.662C676.326 345.987 720.63 352.101 727.187 353.201C733.551 354.263 743.524 354.159 753.801 352.926Z" stroke="#C1C1C1"/>
<path d="M1054.83 91.6102L1067.97 91.4244L1070.5 88.9654C1072.64 86.8927 1073.01 86.0607 1072.87 83.5571C1072.67 80.0877 1069.83 76.6407 1066.25 75.5412C1064.99 75.1474 1059.11 74.308 1053.19 73.6691C1047.27 73.0302 1039.58 72.1684 1036.11 71.7598C1032.63 71.3438 1025.29 70.4969 1019.77 69.8654C1014.25 69.2414 1008.24 68.4093 1006.4 68.023C1003.33 67.3767 978.11 64.2788 954.793 61.686C949.483 61.0991 940.127 59.9922 934 59.227C927.874 58.4693 910.326 56.2926 895.014 54.3907C879.701 52.4815 864.991 50.5871 862.34 50.1636C858.151 49.5024 779.406 39.7778 770.257 38.7972C750.816 36.7022 747.66 36.5759 738.437 37.4748C733.269 37.9726 727.038 38.7155 724.588 39.1092C722.137 39.5104 709.104 41.1671 695.626 42.794C682.148 44.421 656.581 47.5932 638.818 49.8367C590.541 55.9434 564.053 59.2196 558.246 59.8288C553.1 60.3637 543.364 61.5449 520.373 64.4274C513.838 65.252 505.648 66.2177 502.18 66.5818C489.481 67.9041 455.634 71.8415 450.94 72.5398C441.948 73.8771 430.534 75.4 426.806 75.7715C415.199 76.9155 411.048 78.3642 409.466 81.8261C406.979 87.2939 410.291 91.2833 417.895 91.9816C420.642 92.2268 1036.54 91.8776 1054.83 91.6102Z" stroke="#C1C1C1"/>
<path d="M866.052 247.427C866.052 246.134 874.659 231.655 889.006 208.818L895.073 199.16L891.516 198.67C889.563 198.395 884.216 198.15 879.65 198.113C875.075 198.076 871.184 197.793 871.006 197.489C870.82 197.184 873.553 193.566 877.087 189.45C880.615 185.335 891.524 172.549 901.326 161.049L919.148 140.129L932.003 140.114C942.094 140.099 944.731 140.3 944.285 141.028C943.661 142.046 934.067 154.541 921.124 171.19C916.564 177.051 912.836 182.096 912.836 182.408C912.836 183.084 924.547 183.908 934.743 183.953L942.169 183.99L938.456 187.415C931.074 194.22 881.343 236.209 873.107 242.583C865.874 248.192 866.052 248.065 866.052 247.427ZM168.612 230.852C160.102 229.842 157.807 225.726 160.399 216.083C161.253 212.904 162.307 209.383 162.738 208.261L163.518 206.218H173.833H184.14L183.375 209.583C182.855 211.856 182.848 213.186 183.36 213.699C183.776 214.115 188.15 214.657 193.088 214.902L202.066 215.355L204.205 213.201C205.727 211.678 206.641 209.687 207.339 206.389C207.881 203.818 208.163 201.567 207.977 201.381C207.784 201.188 202.14 200.839 195.435 200.594C179.053 200.015 176.15 199.405 172.333 195.773C169.466 193.054 169.318 192.689 169.726 189.688C170.439 184.51 177.36 163.293 179.261 160.492C180.219 159.073 182.506 157.164 184.348 156.258C187.496 154.697 188.818 154.593 207.368 154.341C229.728 154.036 237.458 154.735 239.486 157.231C241.327 159.504 241.06 163.82 238.609 171.673L236.515 178.359L228.74 178.567C224.455 178.686 220.104 178.455 219.057 178.054C217.26 177.371 217.2 177.163 217.861 174.199C218.396 171.821 218.336 170.893 217.609 170.388C216.294 169.466 197.068 170.291 195.836 171.324C194.247 172.639 192.375 181.88 193.474 182.95C194.024 183.485 199.586 184.161 207.74 184.681C223.163 185.676 227.144 186.382 229.461 188.559C232.052 191.003 231.651 195.579 227.745 208.164C223.943 220.429 222.54 223.542 219.502 226.425C215.099 230.607 213.183 230.934 192.145 231.157C181.526 231.261 170.936 231.127 168.612 230.852ZM254.65 230.934L250.32 230.659L250.758 225.31C251.583 215.266 252.622 196.946 253.417 178.359C253.862 168.144 254.39 158.702 254.59 157.372L254.961 154.957H266.42H277.878L277.522 157C276.875 160.708 273.437 200.497 273.734 200.795C274.098 201.159 284.249 184.57 293.926 167.795L301.307 154.995L311.258 154.98L321.209 154.957L320.741 161.086C319.731 174.414 319.3 200.661 320.102 199.903C320.54 199.494 325.954 189.213 332.132 177.059L343.383 154.957H354.091C359.98 154.957 364.799 155.136 364.799 155.351C364.799 156.577 326.481 228.475 325.048 229.939C324.261 230.741 320.993 231.075 311.31 231.32L298.604 231.647L299.072 216.15C299.324 207.622 299.658 198.893 299.799 196.753C299.948 194.606 299.814 192.704 299.517 192.511C298.99 192.192 291.75 204.204 281.413 222.562L276.601 231.105L267.793 231.164C262.944 231.194 257.033 231.09 254.65 230.934ZM350.133 230.964C349.212 230.778 348.462 230.533 348.462 230.414C348.462 230.303 351.009 225.556 354.128 219.88C361.688 206.091 380.787 170.402 385.183 161.829L388.711 154.957H409.429H430.148L430.118 167.401C430.103 174.243 429.635 191.018 429.086 204.68C428.18 227.286 427.964 229.604 426.717 230.518C425.707 231.261 422.952 231.462 416.053 231.313L406.756 231.105L406.979 224.79C407.097 221.321 407.372 217.554 407.595 216.433L407.988 214.39H393.53H379.072L374.72 222.747L370.369 231.105L361.086 231.202C355.977 231.254 351.054 231.142 350.133 230.964ZM407.714 198.603C408.13 198.09 408.724 191.575 409.021 184.116L409.563 170.558H405.345H401.127L394.473 184.079C390.812 191.508 388.065 197.838 388.377 198.142C389.787 199.524 406.622 199.925 407.714 198.603ZM442.111 230.86C440.841 229.976 439.972 233.326 452.47 190.892C458.166 171.561 462.822 155.567 462.822 155.351C462.822 155.136 476.025 154.957 492.155 154.957C515.138 154.957 521.48 155.158 521.465 155.886C521.45 156.399 520.485 159.987 519.326 163.872L517.21 170.93L498.021 171.301L478.832 171.673L477.199 177.245C474.904 185.038 474.956 185.877 477.763 186.442C479.04 186.694 485.56 186.902 492.244 186.902C498.934 186.902 504.407 186.991 504.407 187.095C504.407 187.823 500.776 200.289 500.368 200.943C500.026 201.493 495.058 201.76 485.078 201.76H470.292L468.443 207.889C467.433 211.262 465.599 217.495 464.381 221.737C463.163 225.986 461.894 229.731 461.559 230.065C460.639 230.986 443.314 231.692 442.111 230.86ZM515.546 230.072C515.546 229.01 529.396 180.885 536.792 156.258C537.156 155.047 539.116 154.957 564.424 154.965C579.402 154.972 592.435 155.18 593.371 155.433C595.324 155.96 595.249 156.852 592.502 165.314L590.92 170.187L572.578 170.558C561.825 170.774 553.939 171.234 553.53 171.673C553.137 172.081 552.097 175.031 551.213 178.218C550.04 182.445 549.817 184.287 550.404 184.993C550.976 185.676 555.105 186.107 564.751 186.494C572.199 186.791 578.378 187.118 578.482 187.214C578.585 187.318 577.746 190.542 576.618 194.391L574.561 201.389L562.694 201.842C556.159 202.095 549.305 202.347 547.456 202.399L544.099 202.503L541.916 210.489C540.72 214.88 538.857 221.321 537.78 224.79L535.827 231.105L525.683 231.313C516.059 231.506 515.546 231.447 515.546 230.072ZM599.794 230.8C596.98 229.597 593.519 224.924 593.534 222.354C593.556 218.832 610.124 163.375 611.854 161.042C612.663 159.942 614.802 158.211 616.607 157.186C619.859 155.344 620.045 155.329 641.045 155.091C664.994 154.824 667.965 155.076 670.475 157.58C673.081 160.195 672.762 163.204 668.18 179.525C656.068 222.614 654.865 225.637 648.442 229.248C645.137 231.098 645.063 231.105 623.223 231.276C611.178 231.372 600.633 231.157 599.794 230.8ZM635.855 214.39C636.738 213.914 637.964 211.292 639.233 207.146C643.355 193.663 649.214 173.173 649.214 172.26C649.214 170.915 630.716 170.893 628.993 172.23C628.31 172.765 625.993 179.481 623.565 188.017C616.911 211.359 616.503 213.082 617.408 214.167C618.389 215.348 633.723 215.526 635.855 214.39ZM672.42 230.949C671.499 230.778 670.749 230.526 670.749 230.407C670.749 229.946 685.252 180.335 690.629 162.386L692.745 155.329L721.773 155.136L750.801 154.943L752.732 157.238C753.794 158.494 754.878 160.388 755.138 161.436C755.948 164.637 747.118 195.052 744.073 199.576C742.143 202.436 738.214 205.319 735.4 205.928C734.353 206.158 733.12 206.455 732.652 206.597C732.103 206.76 733.224 210.72 735.808 217.71C738.006 223.683 739.811 229.047 739.811 229.634C739.811 230.221 738.935 230.927 737.865 231.194C735.541 231.774 718.855 230.882 718.179 230.139C717.919 229.849 716.085 224.686 714.11 218.661L710.515 207.704H704.478H698.448L695.641 217.176C694.097 222.383 692.396 227.732 691.854 229.062L690.874 231.476L682.482 231.372C677.871 231.32 673.341 231.127 672.42 230.949ZM726.199 189.696C727.699 188.195 732.459 172.691 731.679 171.836C731.39 171.517 726.169 171.353 720.073 171.465L708.993 171.673L706.297 180.959C704.812 186.07 703.765 190.528 703.966 190.869C704.174 191.219 708.971 191.382 714.622 191.241C723.177 191.033 725.122 190.773 726.199 189.696ZM757.448 230.971C756.326 230.786 755.413 230.236 755.42 229.753C755.42 229.27 757.604 221.522 760.262 212.532C764.383 198.603 775.604 160.299 776.748 156.258C777.089 155.054 778.968 154.957 802.835 154.972C816.982 154.987 829.873 155.299 831.485 155.671C833.096 156.05 835.012 157.127 835.74 158.07C838.517 161.681 838.272 163.56 832.301 184.079C820.427 224.887 821.452 221.878 818.177 225.459C812.986 231.12 813.232 231.083 784.738 231.202C770.851 231.261 758.569 231.157 757.448 230.971ZM801.617 214.204C803.318 212.889 815.244 173.344 814.368 171.925C814.16 171.584 809.348 171.301 803.682 171.301C794.511 171.301 793.337 171.442 792.996 172.601C785.555 197.749 781.344 213.171 781.671 214.041C782.228 215.497 799.761 215.645 801.617 214.204ZM976.172 230.845C968.026 229.753 965.806 225.555 968.345 216.083C969.199 212.904 970.254 209.383 970.684 208.261L971.464 206.218H980.799H990.141L989.65 210.564L989.16 214.917L991.559 215.393C995.331 216.15 1006.35 215.957 1007.93 215.11C1009.7 214.167 1011.11 211.411 1012.28 206.663C1012.86 204.286 1012.91 202.771 1012.43 202.295C1012.03 201.894 1005.71 201.144 998.376 200.616C989.331 199.97 984.326 199.286 982.796 198.499C980.227 197.169 977.598 194.101 977.011 191.746C976.165 188.388 983.791 162.334 986.45 159.482C987.341 158.523 989.584 157.075 991.44 156.25C994.566 154.868 996.505 154.749 1017.38 154.675L1039.95 154.586L1041.74 156.674C1043.01 158.145 1043.53 159.645 1043.53 161.822C1043.53 165.143 1040.81 176.294 1039.63 177.802C1038.77 178.894 1024.48 179.102 1022.81 178.047C1022.05 177.564 1021.9 176.494 1022.24 173.976L1022.71 170.558H1013.21C1006.75 170.558 1003.31 170.856 1002.44 171.494C1000.93 172.594 998.71 180.439 999.341 182.43C999.869 184.087 1001.3 184.339 1016.8 185.483C1028.44 186.345 1030.89 186.984 1033.43 189.785C1035.3 191.85 1034.8 196.241 1031.31 208.446C1027.6 221.403 1024.76 226.893 1020.58 229.181C1017.39 230.927 1016.78 230.986 998.673 231.172C988.425 231.276 978.304 231.135 976.172 230.845ZM1042.23 230.964C1041.31 230.778 1040.56 230.57 1040.56 230.496C1040.56 229.716 1059.33 163.991 1061.45 157.335L1062.24 154.883L1087.64 155.106C1110.63 155.307 1113.23 155.455 1115.08 156.666C1119.63 159.66 1119.36 162.461 1112.25 185.847C1107.6 201.144 1105.9 204.464 1101.55 206.864C1098.52 208.536 1097.36 208.669 1082.27 209.1L1066.21 209.561L1064.18 216.99C1063.08 221.076 1061.72 225.92 1061.17 227.762L1060.18 231.105L1052.04 231.202C1047.57 231.254 1043.15 231.15 1042.23 230.964ZM1089.52 192.875C1090.26 192.481 1091.22 191.226 1091.66 190.089C1093.33 185.818 1097.13 171.933 1096.75 171.546C1096.22 171.019 1077.95 170.811 1077.43 171.324C1076.88 171.866 1071.75 190.907 1071.75 192.392C1071.75 193.418 1072.91 193.588 1079.97 193.588C1084.49 193.588 1088.79 193.269 1089.52 192.875ZM1117.24 230.949C1116.32 230.778 1115.57 230.258 1115.57 229.812C1115.57 229.359 1118.8 217.436 1122.75 203.306C1126.7 189.176 1131.32 172.601 1133.02 166.472L1136.11 155.329L1163.05 155.136L1190 154.935L1189.52 157.461C1189.26 158.85 1188.3 162.282 1187.4 165.091L1185.74 170.187L1168.82 170.388C1152.12 170.581 1151.9 170.61 1151.21 172.245C1150.01 175.09 1148.17 183.21 1148.57 183.871C1148.79 184.22 1154.66 184.748 1161.62 185.045C1172.83 185.528 1174.24 185.728 1173.93 186.806C1171.13 196.619 1170.27 199.279 1169.67 199.903C1169.28 200.312 1163.11 200.809 1155.88 201.017L1142.8 201.389L1141.5 206.025C1140.78 208.573 1139.97 211.663 1139.7 212.896L1139.21 215.133H1156.43H1173.65L1173.15 217.176C1172.88 218.297 1171.82 221.975 1170.8 225.347L1168.94 231.476L1143.93 231.372C1130.16 231.32 1118.16 231.127 1117.24 230.949ZM1187.04 230.956C1186.1 230.771 1185.37 230.087 1185.37 229.381C1185.37 228.698 1189.21 214.598 1193.89 198.046C1198.58 181.501 1203.19 165.12 1204.13 161.644L1205.84 155.329L1232.36 155.136C1253.35 154.98 1258.88 155.136 1258.83 155.879C1258.81 156.391 1257.87 159.823 1256.76 163.501L1254.73 170.187L1251.05 170.67C1249.03 170.937 1241.86 170.982 1235.12 170.774C1225.47 170.477 1222.61 170.618 1221.64 171.405C1220.4 172.423 1217.07 182.95 1217.68 183.938C1217.86 184.228 1223.53 184.629 1230.3 184.837C1237.06 185.045 1242.8 185.416 1243.05 185.676C1243.55 186.174 1241.47 194.673 1239.88 198.603L1238.91 201.017H1225.69H1212.45L1210.79 207.518C1209.88 211.091 1209.13 214.249 1209.13 214.523C1209.13 214.798 1216.45 215.133 1225.41 215.266C1234.36 215.4 1241.9 215.719 1242.16 215.979C1242.42 216.24 1241.68 219.746 1240.51 223.78L1238.39 231.105L1213.55 231.194C1199.89 231.246 1187.96 231.135 1187.04 230.956ZM1254.25 230.994C1253.26 230.711 1253.06 230.147 1253.4 228.639C1254.39 224.359 1260.81 201.04 1267.11 178.827C1270.76 166.012 1273.74 155.396 1273.74 155.24C1273.74 155.084 1285.03 154.957 1298.84 154.957H1323.95L1326.3 157.394C1330.59 161.814 1330.41 163.278 1321.94 193.551C1315.35 217.079 1313.27 223.044 1310.61 226.083C1306.32 230.979 1305.74 231.075 1279.31 231.224C1266.24 231.298 1254.96 231.194 1254.25 230.994ZM1295.85 213.81C1297.09 212.57 1307.91 175.566 1307.91 172.601C1307.9 171.428 1306.94 171.301 1298.3 171.301C1289.79 171.301 1288.65 171.45 1288.32 172.601C1282.52 192.868 1277.33 213.008 1277.69 213.937C1278.4 215.794 1293.97 215.69 1295.85 213.81Z" fill="white"/>
</g>
<defs>
<clipPath id="clip0_135_699">
<rect width="1475" height="389" fill="white"/>
</clipPath>
</defs>
</svg>
